<?xml version="1.0" encoding="utf-8"?>
<svg version="1.1" xmlns="http://www.w3.org/2000/svg" width="512" height="512">
  <defs>
    <linearGradient gradientUnits="userSpaceOnUse" x1="378.141" y1="179.918" x2="378.141" y2="375.026" id="gradient-0">
      <stop offset="0" style="stop-color: rgb(82.745% 58.824% 0%)"/>
      <stop offset="1" style="stop-color: rgb(51.51% 32.84% 0%)"/>
    </linearGradient>
    <linearGradient gradientUnits="userSpaceOnUse" x1="378.141" y1="179.918" x2="378.141" y2="375.026" id="gradient-1" gradientTransform="matrix(1, 0, 0, 1, -76.487521, -0.467271)">
      <stop offset="0" style="stop-color: rgb(82.745% 58.824% 0%)"/>
      <stop offset="1" style="stop-color: rgb(51.51% 32.84% 0%)"/>
    </linearGradient>
    <linearGradient gradientUnits="userSpaceOnUse" x1="224.366" y1="180.512" x2="224.366" y2="375.62" id="gradient-2">
      <stop offset="0" style="stop-color: rgb(15.294% 45.098% 1.9608%)"/>
      <stop offset="1" style="stop-color: rgb(0% 28.163% 0%)"/>
    </linearGradient>
  </defs>
  <path d="M 309.641 180.044 L 349.784 180 C 349.784 180 370 179 374 184 C 380 190 424.388 240 434.335 250 C 438.43 254.256 442.422 258.891 444.399 263.097 C 447.478 269.651 447.265 275 447.265 275 C 447.265 275 447.913 278.886 442.959 287.962 C 441.076 291.412 438.275 294.979 434.335 300 C 424.304 312.78 382.393 362.202 375 370 C 367.336 375.684 349 375 349 375 C 349 375 315 375 309 375 C 313 369.6 361.07 311.07 369.679 300 C 376.258 291.028 384.599 284.847 384.599 275 C 384.599 264.847 380.854 262.589 369.679 250 C 359.731 240 309.641 180.044 309.641 180.044 Z" style="paint-order: fill; fill: url(&quot;#gradient-0&quot;);"/>
  <path d="M 233.154 179.576 L 273.297 179.532 C 273.297 179.532 293.513 178.532 297.513 183.532 C 303.513 189.532 347.901 239.532 357.848 249.532 C 361.943 253.788 365.935 258.423 367.912 262.629 C 370.991 269.183 370.778 274.532 370.778 274.532 C 370.778 274.532 371.426 278.418 366.472 287.494 C 364.589 290.944 361.788 294.511 357.848 299.532 C 347.817 312.312 305.906 361.734 298.513 369.532 C 290.849 375.216 272.513 374.532 272.513 374.532 C 272.513 374.532 238.513 374.532 232.513 374.532 C 236.513 369.132 284.583 310.602 293.192 299.532 C 299.771 290.56 308.112 284.379 308.112 274.532 C 308.112 264.379 304.367 262.121 293.192 249.532 C 283.244 239.532 233.154 179.576 233.154 179.576 Z" style="paint-order: fill; fill: url(&quot;#gradient-1&quot;); stroke-width: 1;"/>
  <path d="M 155.861 180.638 L 196.004 180.594 C 196.004 180.594 216.22 179.594 220.22 184.594 C 226.22 190.594 270.608 240.594 280.555 250.594 C 284.65 254.85 288.642 259.485 290.619 263.691 C 293.698 270.245 293.485 275.594 293.485 275.594 C 293.485 275.594 294.133 279.48 289.179 288.556 C 287.296 292.006 284.495 295.573 280.555 300.594 C 270.524 313.374 228.613 362.796 221.22 370.594 C 213.556 376.278 195.22 375.594 195.22 375.594 L 155.727 375.594 C 155.727 375.594 156.966 289.917 157.082 276.155 C 157.186 263.747 155.861 180.638 155.861 180.638 Z" style="paint-order: fill; stroke-width: 1; fill: url(&quot;#gradient-2&quot;);"/>
</svg>