<?xml version="1.0" encoding="utf-8"?>
<svg version="1.1" xmlns="http://www.w3.org/2000/svg" width="512" height="512">
  <defs>
    <linearGradient gradientUnits="userSpaceOnUse" x1="378.141" y1="179.918" x2="378.141" y2="375.026" id="gradient-0">
      <stop offset="0" style="stop-color: rgb(82.745% 58.824% 0%)"/>
      <stop offset="1" style="stop-color: rgb(51.51% 32.84% 0%)"/>
    </linearGradient>
  </defs>
  <path d="M 288.885 180.078 C 343.173 180.078 343.173 180.078 352.585 188.489 C 353.834 189.568 416.553 250.591 418.912 252.786 C 427.413 260.831 431.148 267.196 431.703 278.447 C 431.006 294.681 429.432 293.919 417.797 305.072 C 388.113 333.529 360.773 357.907 358.393 359.949 C 336.616 378.621 340.944 374.239 287.876 374.778 C 288.209 310.526 288.542 246.275 288.885 180.078 Z" fill="#0E9B59" style=""/>
  <path d="M 309.641 180.044 L 349.784 180 C 349.784 180 370 179 374 184 C 380 190 424.388 240 434.335 250 C 438.43 254.256 442.422 258.891 444.399 263.097 C 447.478 269.651 447.265 275 447.265 275 C 447.265 275 447.791 278.786 442.959 287.962 C 441.159 291.378 438.275 294.979 434.335 300 C 424.304 312.78 382.393 362.202 375 370 C 367.336 375.684 349 375 349 375 C 349 375 315 375 309 375 C 313 369.6 361.07 311.07 369.679 300 C 376.258 291.028 384.599 284.847 384.599 275 C 384.599 264.847 380.854 262.589 369.679 250 C 359.731 240 309.641 180.044 309.641 180.044 Z" style="paint-order: fill; fill: url(&quot;#gradient-0&quot;); pointer-events: none;"/>
</svg>