<?xml version="1.0" encoding="utf-8"?>
<svg version="1.1" xmlns="http://www.w3.org/2000/svg" width="512" height="512">
  <defs>
    <linearGradient gradientUnits="userSpaceOnUse" x1="378.141" y1="179.918" x2="378.141" y2="375.026" id="gradient-0">
      <stop offset="0" style="stop-color: rgb(82.745% 58.824% 0%)"/>
      <stop offset="1" style="stop-color: rgb(51.51% 32.84% 0%)"/>
    </linearGradient>
    <linearGradient gradientUnits="userSpaceOnUse" x1="359.79" y1="180.078" x2="359.79" y2="374.869" id="gradient-1" spreadMethod="reflect" gradientTransform="matrix(1, 0, 0, 1.000374, 0, -0.140247)">
      <stop offset="0" style="stop-color: rgb(17.255% 42.745% 4.7059%)"/>
      <stop offset="1" style="stop-color: rgb(0% 26.973% 0%)"/>
    </linearGradient>
    <path id="path-0" d="M 70.528 161.532 C 76.579 198.188 80.798 223.148 89.404 248.461 C 91.993 256.076 93.755 262.992 100.829 265.35 C 135.076 260.769 164.335 247.493 192.725 238.03 C 196.158 235.41 196.819 229.869 197.692 227.102 C 201.09 216.342 204.024 205.188 207.13 194.317 C 216.751 174.578 224.264 161.793 228.987 147.624 C 236.632 117.539 210.754 120.181 190.241 118.316 C 146.429 118.316 121.511 117.851 96.358 122.29 C 76.829 125.737 55.661 130.711 44.201 148.617 C 34.15 164.322 34.665 179.285 28.802 195.807 C 42.654 267.109 118.904 235.372 150.503 212.199 C 159.107 205.889 166.95 198.531 174.346 190.84 C 238.823 123.784 148.908 215.002 193.222 157.558 C 188.408 128.353 189.462 128.279 179.81 115.833 C 176.793 111.942 173.671 108.04 169.875 104.904 C 165.978 101.685 161.626 98.901 156.96 96.957 C 130.047 85.743 119.498 119.97 117.221 140.173 C 116.497 146.598 117.419 153.19 116.228 159.545 C 124.391 192.776 128.844 209.847 142.058 215.677 C 167.206 226.771 178.32 191.227 178.32 173.454 C 178.32 167.229 175.573 154.242 171.365 149.114 C 168.508 145.632 162.233 145.297 160.437 141.166 C 119.918 145.201 99.982 169.964 93.378 197.794 C 91.183 207.046 88.614 225.669 97.352 233.062 C 100.94 236.099 100.759 233.316 104.803 235.049 L 106.79 234.553" style="fill: none;"/>
    <path id="path-1" d="M 8.933 99.937 C 89.052 137.16 144.503 162.416 200.176 187.363 C 224.806 198.399 242.534 205.513 264.752 217.664 C 272.282 221.782 278.44 224.674 282.138 232.069 C 276.808 232.566 269.379 228.678 264.255 227.102 C 254.109 223.98 243.746 221.726 233.457 219.154 L 226.006 217.167 C 218.958 215.54 212.313 214.683 205.144 214.683" style="fill: none;"/>
  </defs>
  <path d="M 352.585 188.419 C 353.834 189.499 416.553 250.544 418.912 252.74 C 427.413 260.788 431.148 267.156 431.703 278.411 C 431.006 294.651 429.432 293.889 417.797 305.046 C 388.113 333.514 360.773 357.901 358.393 359.943 C 336.616 378.622 340.944 374.239 287.876 374.778 C 288.209 310.502 288.542 246.227 288.885 180.005 C 343.173 180.005 343.173 180.005 352.585 188.419 Z M 338.31 286.437 C 337.589 292.969 332.604 295.432 326.651 295.821 L 326.651 276.331 C 332.396 277.54 338.903 280.272 338.31 286.437 Z M 322.213 268.049 C 318.152 267.273 311.748 265.165 311.391 259.449 C 311.161 255.766 314.171 251.325 322.213 250.216 Z M 322.213 243.846 C 311.729 244.603 302.523 249.767 303.064 261.337 C 303.619 273.211 318.328 275.371 318.328 275.371 C 318.328 275.371 319.925 275.385 322.213 275.634 L 322.213 295.767 C 321.364 295.698 320.51 295.601 319.663 295.479 C 309.712 295.32 303.343 289.943 303.343 289.943 C 302.788 289.943 303.064 293.451 303.064 297.499 C 307.011 300.858 317.706 302.029 322.213 302.295 L 322.213 315.039 L 326.651 315.311 L 326.651 302.27 C 335.092 301.64 346.695 297.685 347.187 286.437 C 347.736 273.891 334.16 269.991 326.651 268.721 L 326.651 249.974 C 335.418 250.222 342.748 254.591 342.748 254.591 L 343.027 246.225 C 343.027 246.225 335.826 243.895 326.651 243.741 L 326.651 233.272 L 322.213 233.272 Z" style="fill-rule: nonzero; fill: url(&quot;#gradient-1&quot;); paint-order: stroke;"/>
  <path d="M 309.641 180.044 L 364.983 180.01 C 364.983 180.01 370.037 180.111 372.935 183.322 C 375.337 185.983 424.388 240 434.335 250 C 438.43 254.256 442.422 258.891 444.399 263.097 C 447.478 269.651 447.265 275 447.265 275 C 447.265 275 447.791 278.786 442.959 287.962 C 441.159 291.378 438.275 294.979 434.335 300 C 424.304 312.78 382.393 362.202 375 370 C 367.336 375.684 349 375 349 375 C 349 375 315 375 309 375 C 313 369.6 361.07 311.07 369.679 300 C 376.258 291.028 384.599 284.847 384.599 275 C 384.599 264.847 380.854 262.589 369.679 250 C 359.731 240 309.641 180.044 309.641 180.044 Z" style="paint-order: fill; fill: url(&quot;#gradient-0&quot;);"/>
  <text style="font-family: Britannic; font-size: 32px; font-weight: 700; letter-spacing: -1px; word-spacing: 4px; white-space: pre;" x="286.735" y="398.887">BudgetFlow</text>
</svg>